<?xml version="1.0" encoding="utf-8"?>
<!-- Generator: Adobe Illustrator 22.0.1, SVG Export Plug-In . SVG Version: 6.00 Build 0)  -->
<svg version="1.1" id="Capa_1" xmlns="http://www.w3.org/2000/svg" xmlns:xlink="http://www.w3.org/1999/xlink" x="0px" y="0px"
	 viewBox="0 0 512 512" style="enable-background:new 0 0 512 512;" xml:space="preserve">
<style type="text/css">
	.st0{fill:#343755;}
</style>
<path class="st0" d="M489.1,40.1c-7.6-7.6-19.9-7.6-27.5,0l-87.8,87.8C339.4,68.9,305.4,19.1,298,8.4c-3.6-5.3-9.6-8.4-16-8.4
	s-12.4,3.1-16,8.4c-15.9,23-155.3,227.4-155.3,314.8c0,20.3,3.6,39.7,10.1,57.8l-97.8,97.8c-7.6,7.6-7.6,19.9,0,27.5
	c3.8,3.8,8.8,5.7,13.8,5.7s10-1.9,13.8-5.7l88.7-88.7c30.7,46.3,83.2,76.8,142.8,76.8c94.5,0,171.4-76.8,171.4-171.3
	c0-38.9-27.7-101-59.7-160l95.5-95.5C496.7,60.1,496.7,47.7,489.1,40.1z M149.6,323.2c0-56.7,84.6-196.5,132.4-268.9
	c18,27.2,41.2,64,63.1,102.3L152.2,349.4C150.5,340.9,149.6,332.2,149.6,323.2z M414.3,323.2c0,73-59.4,132.3-132.4,132.3
	c-48.9,0-91.6-26.7-114.5-66.2l197.3-197.3C392.5,244.1,414.3,294.4,414.3,323.2z"/>
</svg>
