<svg height="512pt" viewBox="0 0 512 512" width="512pt" xmlns="http://www.w3.org/2000/svg"><path d="m437.019531 74.980469c-48.351562-48.351563-112.640625-74.980469-181.019531-74.980469s-132.667969 26.628906-181.019531 74.980469c-48.351563 48.351562-74.980469 112.640625-74.980469 181.019531s26.628906 132.667969 74.980469 181.019531c48.351562 48.351563 112.640625 74.980469 181.019531 74.980469s132.667969-26.628906 181.019531-74.980469c48.351563-48.351562 74.980469-112.640625 74.980469-181.019531s-26.628906-132.667969-74.980469-181.019531zm-21.214843 340.824219c-42.683594 42.6875-99.4375 66.195312-159.804688 66.195312s-117.121094-23.507812-159.804688-66.195312c-42.6875-42.683594-66.195312-99.4375-66.195312-159.804688s23.507812-117.121094 66.195312-159.804688c42.683594-42.6875 99.4375-66.195312 159.804688-66.195312s117.121094 23.507812 159.804688 66.195312c42.6875 42.683594 66.195312 99.4375 66.195312 159.804688s-23.507812 117.121094-66.195312 159.804688zm0 0"/><path d="m450.425781 277.039062c-3.378906-4.03125-8.332031-6.34375-13.589843-6.34375h-112.148438c-6.808594 0-13.097656 3.988282-16.015625 10.164063-5.761719 12.175781-15.636719 22.050781-27.8125 27.8125-6.171875 2.917969-10.164063 9.207031-10.164063 16.015625v112.160156c0 5.257813 2.3125 10.210938 6.34375 13.585938 3.214844 2.695312 7.226563 4.136718 11.347657 4.136718 1.03125 0 2.074219-.089843 3.105469-.273437 82.664062-14.707031 148.085937-80.132813 162.792968-162.800781.917969-5.164063-.488281-10.433594-3.859375-14.457032zm-114.636719 16.648438c-.003906.007812-.007812.019531-.011718.027344.003906-.011719.007812-.019532.011718-.027344zm-35.09375 127.84375v-89.453125c12.933594-7.617187 23.765626-18.449219 31.382813-31.382813h89.441406c-15.820312 58.675782-62.15625 105.015626-120.824219 120.835938zm0 0"/><path d="m231.140625 308.671875c-12.175781-5.761719-22.050781-15.636719-27.8125-27.8125-2.917969-6.175781-9.207031-10.164063-16.015625-10.164063h-112.148438c-5.257812 0-10.210937 2.3125-13.589843 6.34375-3.371094 4.023438-4.777344 9.292969-3.859375 14.453126 14.707031 82.671874 80.128906 148.097656 162.796875 162.804687 1.03125.183594 2.070312.273437 3.101562.273437 4.121094 0 8.132813-1.441406 11.347657-4.136718 4.03125-3.378906 6.34375-8.328125 6.34375-13.585938v-112.160156c0-6.808594-3.988282-13.09375-10.164063-16.015625zm-19.835937 112.859375c-58.667969-15.824219-105-62.160156-120.824219-120.835938h89.441406c7.617187 12.933594 18.449219 23.765626 31.382813 31.382813zm0 0"/><path d="m280.859375 203.328125c12.175781 5.761719 22.050781 15.636719 27.8125 27.8125 2.917969 6.175781 9.207031 10.164063 16.015625 10.164063h112.148438c5.257812 0 10.210937-2.3125 13.589843-6.34375 3.371094-4.023438 4.777344-9.292969 3.859375-14.457032-14.710937-82.667968-80.128906-148.09375-162.792968-162.800781-5.164063-.914063-10.429688.492187-14.453126 3.863281-4.03125 3.375-6.34375 8.328125-6.34375 13.585938v112.160156c0 6.808594 3.992188 13.097656 10.164063 16.015625zm19.835937-112.859375c58.667969 15.820312 105.003907 62.160156 120.824219 120.835938h-89.441406c-7.617187-12.933594-18.445313-23.765626-31.378906-31.378907v-89.457031zm0 0"/><path d="m234.960938 61.566406c-4.019532-3.371094-9.285157-4.777344-14.457032-3.863281-82.660156 14.707031-148.082031 80.132813-162.789062 162.800781-.917969 5.164063.488281 10.433594 3.859375 14.457032 3.378906 4.03125 8.332031 6.34375 13.589843 6.34375h112.148438c6.808594 0 13.097656-3.988282 16.015625-10.164063 5.761719-12.175781 15.636719-22.050781 27.816406-27.8125 6.171875-2.921875 10.160157-9.207031 10.160157-16.015625v-112.160156c0-5.257813-2.3125-10.210938-6.34375-13.585938zm-23.65625 118.355469c-12.933594 7.617187-23.765626 18.449219-31.378907 31.382813h-89.445312c15.824219-58.675782 62.160156-105.015626 120.824219-120.835938zm0 0"/></svg>