<svg height="511pt" viewBox="0 -25 511.99931 511" width="511pt" xmlns="http://www.w3.org/2000/svg"><g fill-rule="evenodd"><path d="m480.609375 444.625c20.425781-11.800781 27.472656-38.027344 15.734375-58.566406l-100.367188-174.785156c-.390624-.800782-.8125-1.582032-1.257812-2.355469l-93.644531-163.082031-93.648438 163.078124.078125.042969-.078125.125-99.5625 173.386719c-4.988281 7.039062-7.921875 15.65625-7.921875 24.960938 0 23.796874 19.183594 43.085937 42.855469 43.085937h316.550781v-.183594c7.226563.007813 14.546875-1.828125 21.261719-5.707031zm-224.597656-84.113281c-11.046875 0-20-8.953125-20-20s8.953125-19.996094 20-19.996094 20 8.949219 20 19.996094-8.953125 20-20 20zm20-100c0 11-8.996094 20.003906-20 20.003906-11 0-20-9.003906-20-20.003906v-80.003907c0-11.003906 9-20 20-20 11.003906 0 20 8.996094 20 20zm0 0" fill="#ff5a5a"/><path d="m276.011719 180.507812c0-7.363281-4.039063-13.808593-10-17.28125-5.960938 3.472657-10 9.917969-10 17.28125v80.003907c0 7.359375 4.039062 13.808593 10 17.28125 5.960937-3.472657 10-9.921875 10-17.28125zm0 0" fill="#ff8c5a"/><path d="m266.011719 323.210938c-5.972657 3.460937-10 9.902343-10 17.300781 0 7.398437 4.027343 13.84375 10 17.304687 5.972656-3.460937 10-9.90625 10-17.304687 0-7.398438-4.027344-13.84375-10-17.300781zm0 0" fill="#ff8c5a"/></g><path d="m256.011719 290.515625c16.542969 0 30-13.460937 30-30.003906v-80.003907c0-16.542968-13.457031-30-30-30s-30 13.457032-30 30v80.003907c0 16.542969 13.457031 30.003906 30 30.003906zm-10-110.007813c0-5.515624 4.488281-10 10-10 5.515625 0 10 4.484376 10 10v80.003907c0 5.515625-4.488281 10.003906-10 10.003906-5.515625 0-10-4.488281-10-10.003906zm0 0"/><path d="m256.011719 310.507812c-16.542969 0-30 13.460938-30 30.003907s13.457031 30.003906 30 30.003906 30.003906-13.460937 30.003906-30.003906-13.460937-30.003907-30.003906-30.003907zm0 40.003907c-5.511719 0-10-4.484375-10-10s4.488281-10 10-10c5.515625 0 10 4.484375 10 10s-4.484375 10-10 10zm0 0"/><path d="m505.015625 381.082031-100.21875-174.527343c-.433594-.867188-.902344-1.742188-1.40625-2.617188l-101.300781-176.410156c-4.605469-8.242188-11.355469-15.113282-19.535156-19.878906-8.03125-4.675782-17.164063-7.148438-26.410157-7.148438-18.789062 0-36.300781 10.136719-45.707031 26.464844l-101.625 176.972656c-.210938.367188-.398438.746094-.554688 1.136719l-98.785156 172.019531c-6.199218 8.925781-9.472656 19.402344-9.472656 30.335938 0 29.273437 23.710938 53.085937 52.855469 53.085937h406.496093c.726563 0 1.433594-.074219 2.117188-.226563 8.453125-.335937 16.757812-2.742187 24.140625-7.007812 25.148437-14.527344 33.859375-46.910156 19.40625-72.199219zm-29.410156 54.882813c-4.945313 2.855468-10.550781 4.367187-16.242188 4.367187-.003906 0-.007812 0-.011719 0-.648437 0-1.285156.0625-1.910156.183594h-404.585937c-18.117188 0-32.855469-14.839844-32.855469-33.082031 0-6.941406 2.101562-13.570313 6.078125-19.183594.1875-.257812.355469-.527344.515625-.804688l99.523438-173.308593.03125-.054688c.25-.417969.464843-.851562.648437-1.296875l100.976563-175.851562c5.839843-10.136719 16.710937-16.433594 28.371093-16.433594 5.714844 0 11.367188 1.53125 16.34375 4.433594 5.097657 2.96875 9.304688 7.25 12.164063 12.386718.019531.039063.042968.074219.0625.113282l101.324218 176.453125c.347657.605469.671876 1.210937.960938 1.800781.09375.191406.195312.382812.300781.5625l100.359375 174.773438c9 15.742187 3.589844 35.902343-12.054687 44.941406zm0 0"/><path d="m112.855469 400.515625h-.234375c-5.523438 0-10 4.476563-10 10 0 5.519531 4.476562 10 10 10h.234375c5.523437 0 10-4.480469 10-10 0-5.523437-4.476563-10-10-10zm0 0"/><path d="m83.890625 400.515625h-31.035156c-5.523438 0-10 4.476563-10 10 0 5.519531 4.476562 10 10 10h31.035156c5.523437 0 10-4.480469 10-10 0-5.523437-4.476563-10-10-10zm0 0"/><path d="m399.402344 400.515625h-.238282c-5.523437 0-10 4.476563-10 10 0 5.519531 4.476563 10 10 10h.238282c5.519531 0 10-4.480469 10-10 0-5.523437-4.480469-10-10-10zm0 0"/><path d="m459.167969 400.515625h-31.039063c-5.519531 0-10 4.476563-10 10 0 5.519531 4.480469 10 10 10h31.039063c5.523437 0 10-4.480469 10-10 0-5.523437-4.476563-10-10-10zm0 0"/></svg>